<?xml version="1.0" standalone="no"?>
<!DOCTYPE svg PUBLIC "-//W3C//DTD SVG 20010904//EN"
 "http://www.w3.org/TR/2001/REC-SVG-20010904/DTD/svg10.dtd">
<svg version="1.0" xmlns="http://www.w3.org/2000/svg"
 width="433.000000pt" height="112.000000pt" viewBox="0 0 433.000000 112.000000"
 preserveAspectRatio="xMidYMid meet">
<metadata>
Created by potrace 1.15, written by Peter Selinger 2001-2017
</metadata>
<g transform="translate(0.000000,112.000000) scale(0.100000,-0.100000)"
fill="#000000" stroke="none">
<path d="M2361 1015 c-38 -42 -55 -75 -30 -59 6 3 3 -5 -6 -20 -21 -32 -30
-34 -15 -3 11 21 11 21 -5 2 -8 -11 -13 -26 -10 -34 3 -9 3 -12 -1 -8 -4 4
-13 -2 -20 -12 -23 -33 -114 -268 -131 -341 -17 -70 -18 -72 -74 -106 -31 -18
-61 -34 -67 -34 -17 0 -36 140 -24 172 7 20 7 32 -3 44 -12 17 -14 17 -39 0
-26 -16 -50 -60 -42 -74 2 -4 6 -29 10 -57 3 -27 10 -66 16 -85 11 -39 13 -36
-70 -94 -23 -15 -49 -44 -58 -63 -15 -31 -15 -37 -1 -61 35 -63 146 -63 190 0
16 22 23 50 27 103 4 69 6 73 36 89 17 8 40 22 51 30 19 15 20 14 17 -42 -3
-47 0 -62 18 -85 31 -39 48 -34 71 20 36 84 130 203 161 203 5 0 8 -10 8 -22
0 -48 -26 -96 -72 -134 -53 -44 -60 -69 -23 -86 21 -9 29 -7 59 15 18 15 50
48 69 74 51 69 120 119 160 114 18 -1 33 -4 34 -5 1 -1 -14 -40 -34 -86 -30
-71 -34 -88 -27 -118 18 -72 66 -68 144 12 28 29 61 67 71 82 l19 29 0 -37 c0
-43 37 -92 76 -102 36 -9 62 10 136 99 33 42 63 73 65 71 3 -2 -1 -22 -8 -45
-10 -34 -9 -44 5 -66 31 -47 92 -25 156 57 l41 51 -7 -80 c-6 -74 -5 -82 15
-102 11 -11 29 -21 39 -21 35 0 97 56 128 114 22 43 34 56 52 56 13 0 33 5 45
11 32 16 97 81 97 96 0 22 -25 14 -47 -14 -22 -30 -89 -70 -99 -60 -3 3 7 33
22 67 21 48 25 63 15 73 -22 22 -81 -64 -81 -119 0 -32 -88 -186 -104 -181
-26 8 -13 119 25 218 13 35 15 49 6 58 -23 23 -46 10 -84 -46 -21 -31 -61 -82
-90 -112 -41 -44 -55 -53 -64 -44 -9 9 -7 27 10 79 12 36 30 84 41 107 27 55
26 77 -3 77 -19 0 -44 -27 -117 -126 -93 -125 -164 -190 -189 -175 -9 6 -11
23 -6 63 8 67 9 67 67 101 96 55 129 145 65 175 -56 27 -119 -14 -163 -106
-47 -96 -193 -276 -211 -259 -2 3 14 52 36 108 23 56 40 107 38 113 -2 6 -27
15 -55 21 l-51 10 16 33 c21 42 7 61 -32 44 -28 -13 -46 -50 -39 -79 4 -14 -5
-26 -35 -46 -22 -15 -42 -27 -43 -27 -2 0 -4 14 -5 31 -3 40 -28 79 -51 79
-31 0 -92 -50 -138 -112 -49 -67 -50 -66 -29 47 14 73 19 83 53 109 123 97
216 237 227 340 14 135 -51 180 -134 91z m105 -75 c-6 -67 -27 -120 -69 -174
-42 -55 -108 -126 -128 -136 -19 -11 -17 -5 51 174 49 130 61 153 96 196 26
31 28 31 42 14 10 -14 12 -35 8 -74z"/>
<path d="M862 884 c-71 -42 -119 -169 -77 -204 12 -10 16 -10 19 1 3 8 10 31
16 51 24 78 109 162 130 128 7 -11 -8 -82 -27 -130 -4 -8 -7 -17 -7 -20 -1 -3
-5 -11 -9 -17 -5 -7 -5 -13 0 -13 4 0 3 -4 -4 -8 -18 -12 -153 -353 -153 -388
0 -34 20 -58 45 -52 9 2 30 37 48 83 33 79 165 292 245 391 45 57 98 99 106
85 3 -5 -30 -78 -73 -163 -109 -212 -128 -295 -78 -337 18 -14 12 -20 87 109
96 164 250 336 250 278 0 -7 -18 -51 -41 -97 -22 -46 -38 -90 -35 -98 3 -8 2
-12 -2 -9 -19 12 -81 -182 -81 -254 -1 -123 114 -187 187 -104 28 31 24 38
-12 24 -40 -15 -92 -12 -106 5 -10 13 -11 26 -2 65 13 54 91 259 127 330 12
25 26 60 30 77 15 73 -24 131 -80 117 -40 -10 -117 -91 -185 -195 -34 -52 -64
-96 -67 -99 -11 -11 42 112 88 203 51 104 56 124 38 160 -29 54 -59 49 -126
-20 -30 -32 -80 -93 -110 -135 -30 -43 -56 -78 -58 -78 -2 0 12 47 31 105 43
133 43 198 0 227 -22 15 -72 7 -114 -18z"/>
<path d="M1559 576 c-68 -46 -121 -216 -85 -271 10 -14 26 -25 39 -25 26 0 82
54 122 118 29 47 42 51 25 8 -21 -55 -8 -137 24 -158 26 -18 56 -6 94 37 44
50 116 179 110 197 -4 12 -8 8 -89 -109 -63 -92 -83 -96 -74 -15 4 31 18 82
30 112 17 39 20 60 14 72 -12 22 -47 23 -69 3 -16 -15 -19 -13 -38 20 -26 42
-52 45 -103 11z"/>
</g>
</svg>
